<svg id="Laag_1" data-name="Laag 1" xmlns="http://www.w3.org/2000/svg" viewBox="0 0 99.01 137.96"><defs><style>.cls-1{fill:#1d1d1b;}</style></defs><title>logozwart</title><g id="olyv85.tif"><path class="cls-1" d="M90,169.82s-24.55-5-32.3-14.3a32.15,32.15,0,0,1-5.94-29.39c2.74-8.53,7.53-13.33,10.55-19.06,2.38-4.51,6.69-20,3.23-24.92-4.86-6.88,8.73,5.56,11.14,10.46,2,4.16,1.39,22.86,1.39,22.86s2.31-.28,5.47-7.49c4-9-1.85-20.3-3.23-26.76S80.24,57,83.56,50.91c4-7.3,11.52-15.35,15.67-17.2l4.15-1.85a44,44,0,0,0-5.08,25.38C100,73.09,117.54,93,120,96c1.91,2.37-2.31-11.07,8.31-19.38s12.92-8.31,12.92-8.31-5.54,9.69-5.08,16.61,9.69,27.68,9.69,27.68,5.08,14.3,3.23,21.69-4.61,18-10.61,22.61-20.3,10.61-20.3,10.61,7.86-4.19,7.86-9A24.2,24.2,0,0,0,122,145c-2.92-4.78-2.71-11.1-2.92-13.28a8.27,8.27,0,0,1,.2-3.21s-3.31,2.15-4.29,4.72c-.92,2.41-1.14,7.87-.57,12.59,0,0-5.58-3.15-5-7.15s3-11.3,3-13.73-.62-8.21-2.15-10.44c-1.26-1.84-6.44-7.72-7.87-8.15,0,0,2.29,7.87,1.43,11.44s-8.44,17.74-11.16,19l-1.29.86s.72-4.86.14-6.15-5-6.72-6.15-6.72l-1.14-.72s1.57,9.44-.57,13.88-5.29,11.44-5.29,15.59,3,11.59,8.58,13.88Z" transform="translate(-50.46 -31.87)"/></g></svg>