<svg id="Laag_1" data-name="Laag 1" xmlns="http://www.w3.org/2000/svg" viewBox="0 0 11.25 15.67"><defs><style>.cls-1{fill:#e30613;}</style></defs><title>logo</title><g id="olyv85.tif"><path class="cls-1" d="M8.83,17.68S6,17.12,5.16,16.05a3.65,3.65,0,0,1-.67-3.34,11.17,11.17,0,0,1,1.2-2.16c.27-.51.76-2.27.37-2.83-.55-.78,1,.63,1.27,1.19a10.94,10.94,0,0,1,.16,2.6s.26,0,.62-.85c.45-1-.21-2.31-.37-3A7.55,7.55,0,0,1,8.1,4.17a5.41,5.41,0,0,1,1.78-2L10.35,2a5,5,0,0,0-.58,2.88C10,6.69,12,9,12.24,9.29S12,8,13.18,7.09s1.47-.94,1.47-.94A4.33,4.33,0,0,0,14.07,8a17.13,17.13,0,0,0,1.1,3.14,6,6,0,0,1,.37,2.46,4.89,4.89,0,0,1-1.21,2.57A14.29,14.29,0,0,1,12,17.42s.89-.48.89-1a2.75,2.75,0,0,0-.45-1.54,3.31,3.31,0,0,1-.33-1.51.94.94,0,0,1,0-.36,1.42,1.42,0,0,0-.49.54A3.74,3.74,0,0,0,11.61,15s-.63-.36-.57-.81.34-1.28.34-1.56a2.84,2.84,0,0,0-.24-1.19,4.41,4.41,0,0,0-.89-.93,3.72,3.72,0,0,1,.16,1.3,6.72,6.72,0,0,1-1.27,2.16L9,14a2.34,2.34,0,0,0,0-.7c-.06-.15-.57-.76-.7-.76l-.13-.08a3.55,3.55,0,0,1-.06,1.58,5.32,5.32,0,0,0-.6,1.77,1.88,1.88,0,0,0,1,1.58Z" transform="translate(-4.34 -2.01)"/></g></svg>